<svg version="1.1" xmlns="http://www.w3.org/2000/svg" xmlns:xlink="http://www.w3.org/1999/xlink" width="99" height="132" viewBox="0 0 99 132" xml:space="preserve" id="DietDoctorLogo">
	<path id="DietDoctorLogo-shape1" stroke="none" fill="rgb(255, 255, 255)" d="M 0.5,131.4 L 0.5,115 33.4,115 C 60.6,115 82.7,92.9 82.7,65.7 82.7,38.5 60.6,16.4 33.4,16.4 L 0.5,16.4 0.5,-0 33.4,-0 C 69.7,-0 99.2,29.4 99.2,65.8 99.2,102.2 69.8,131.6 33.4,131.6 L 0.5,131.6 0.5,131.4 Z M 0.5,131.4"></path>
	<path id="DietDoctorLogo-shape2" stroke="none" fill="rgb(255, 255, 255)" d="M 33.4,32.8 L 0.5,32.8 0.5,98.6 33.4,98.6 C 51.6,98.6 66.3,83.9 66.3,65.7 66.3,47.5 51.6,32.8 33.4,32.8 Z M 33.4,82.1 L 17,82.1 17,65.7 17,49.3 33.4,49.3 C 42.5,49.3 49.8,56.7 49.8,65.7 49.8,74.7 42.5,82.1 33.4,82.1 Z M 33.4,82.1"></path>
</svg>